<svg clip-rule="evenodd" fill-rule="evenodd" stroke-linejoin="round" stroke-miterlimit="2" viewBox="0 0 64 64" xmlns="http://www.w3.org/2000/svg"><path d="m-.000738-.0007h64v64h-64z" fill="none"/><path d="m.232-.411c-.014-.031-.022-.061-.022-.088 0-.031.01-.06.028-.086.018-.027.041-.048.069-.064.029-.017.058-.025.088-.025.034 0 .062.01.085.028.022.019.034.041.034.067 0 .02-.006.038-.017.055-.011.016-.022.024-.034.024-.006 0-.009-.003-.009-.009 0-.002.002-.007.005-.015.005-.013.008-.025.008-.039 0-.019-.008-.035-.024-.047s-.035-.018-.058-.018c-.036 0-.07.014-.101.044s-.047.064-.047.103c0 .017.002.031.007.043.004.012.008.02.012.023.004.004.009.006.016.006.045 0 .067.013.067.039 0 .006-.002.013-.007.018-.004.006-.011.009-.02.009-.011 0-.023-.006-.039-.02-.017-.014-.033-.021-.049-.021-.02 0-.04.01-.058.03-.019.021-.028.045-.028.073 0 .054.027.105.081.154.054.048.121.072.202.072.076 0 .141-.019.195-.057.055-.037.082-.083.082-.136 0-.035-.014-.065-.04-.091-.027-.026-.063-.039-.109-.039-.036 0-.069.01-.098.03-.029.021-.043.046-.043.076 0 .018.005.033.015.045.011.012.021.018.033.018s.019-.007.019-.021l-.001-.015c0-.014.004-.026.011-.035.008-.009.018-.014.03-.014s.021.004.03.012c.008.008.013.019.013.033 0 .021-.007.038-.022.052-.014.013-.032.02-.054.02-.026 0-.049-.009-.068-.028s-.029-.042-.029-.069c0-.04.017-.076.051-.109.033-.033.094-.05.182-.05.079 0 .137-.011.173-.032.035-.022.053-.055.053-.098 0-.027-.008-.048-.024-.065-.016-.016-.036-.025-.06-.025-.012 0-.021.002-.027.005-.006.004-.009.009-.009.016 0 .005.003.011.008.02.008.01.012.021.012.031 0 .012-.005.023-.014.032-.01.009-.021.013-.035.013-.016 0-.028-.005-.037-.015-.008-.011-.012-.023-.012-.037 0-.022.01-.042.032-.059.022-.018.049-.027.083-.027s.063.013.086.038.034.056.034.091c0 .034-.009.064-.029.092s-.045.047-.075.058c-.03.012-.072.019-.127.02.052.037.079.084.079.142 0 .043-.016.085-.048.126-.032.04-.071.07-.116.089-.046.02-.101.03-.167.03-.053 0-.096-.006-.128-.018-.033-.011-.065-.028-.094-.05-.03-.022-.054-.049-.071-.081-.017-.033-.025-.067-.025-.104 0-.045.012-.082.038-.113s.064-.049.114-.057z" fill="#8fcceb" fill-rule="nonzero" transform="matrix(64 0 0 64 4.671 53.5623)"/></svg>